<svg height="undefined" width="400" xmlns="http://www.w3.org/2000/svg"><line x1="45.6" y1="15" x2="354.4" y2="15" style="stroke:#000; stroke-width: 1"></line><text x="45.6" y="5" fill="black" font-size="10" font-family="Verdana" dominant-baseline="middle" text-anchor="middle">1</text><line x1="45.6" y1="15" x2="45.6" y2="10" style="stroke:#000; stroke-width: 1"></line><text x="89.71428571428572" y="5" fill="black" font-size="10" font-family="Verdana" dominant-baseline="middle" text-anchor="middle">2</text><line x1="89.71428571428572" y1="15" x2="89.71428571428572" y2="10" style="stroke:#000; stroke-width: 1"></line><text x="133.82857142857142" y="5" fill="black" font-size="10" font-family="Verdana" dominant-baseline="middle" text-anchor="middle">3</text><line x1="133.82857142857142" y1="15" x2="133.82857142857142" y2="10" style="stroke:#000; stroke-width: 1"></line><text x="177.94285714285715" y="5" fill="black" font-size="10" font-family="Verdana" dominant-baseline="middle" text-anchor="middle">4</text><line x1="177.94285714285715" y1="15" x2="177.94285714285715" y2="10" style="stroke:#000; stroke-width: 1"></line><text x="222.05714285714285" y="5" fill="black" font-size="10" font-family="Verdana" dominant-baseline="middle" text-anchor="middle">5</text><line x1="222.05714285714285" y1="15" x2="222.05714285714285" y2="10" style="stroke:#000; stroke-width: 1"></line><text x="266.1714285714286" y="5" fill="black" font-size="10" font-family="Verdana" dominant-baseline="middle" text-anchor="middle">6</text><line x1="266.1714285714286" y1="15" x2="266.1714285714286" y2="10" style="stroke:#000; stroke-width: 1"></line><text x="310.28571428571433" y="5" fill="black" font-size="10" font-family="Verdana" dominant-baseline="middle" text-anchor="middle">7</text><line x1="310.28571428571433" y1="15" x2="310.28571428571433" y2="10" style="stroke:#000; stroke-width: 1"></line><text x="354.40000000000003" y="5" fill="black" font-size="10" font-family="Verdana" dominant-baseline="middle" text-anchor="middle">8</text><line x1="354.40000000000003" y1="15" x2="354.40000000000003" y2="10" style="stroke:#000; stroke-width: 1"></line><line x1="52.42285714285714" y1="20" x2="69.65714285714286" y2="20" style="stroke:#000; stroke-width: 2"></line><line x1="123.00571428571428" y1="25" x2="135.82857142857142" y2="25" style="stroke:#000; stroke-width: 2"></line><line x1="255.34857142857146" y1="30" x2="285.81714285714287" y2="30" style="stroke:#000; stroke-width: 2"></line><line x1="131.82857142857142" y1="35" x2="153.4742857142857" y2="35" style="stroke:#000; stroke-width: 2"></line><line x1="54.42285714285714" y1="15" x2="54.42285714285714" y2="50" style="stroke:#000; stroke-width: 1"></line><line x1="54.42285714285714" y1="50" x2="40.6" y2="50" style="stroke:#000; stroke-width: 1"></line><text x="2.6000000000000014" y="50" fill="black" font-size="10" font-family="Verdana" dominant-baseline="middle" text-anchor="auto">model1</text><line x1="67.65714285714286" y1="15" x2="67.65714285714286" y2="60" style="stroke:#000; stroke-width: 1"></line><line x1="67.65714285714286" y1="60" x2="40.6" y2="60" style="stroke:#000; stroke-width: 1"></line><text x="2.6000000000000014" y="60" fill="black" font-size="10" font-family="Verdana" dominant-baseline="middle" text-anchor="auto">model2</text><line x1="125.00571428571428" y1="15" x2="125.00571428571428" y2="70" style="stroke:#000; stroke-width: 1"></line><line x1="125.00571428571428" y1="70" x2="40.6" y2="70" style="stroke:#000; stroke-width: 1"></line><text x="2.6000000000000014" y="70" fill="black" font-size="10" font-family="Verdana" dominant-baseline="middle" text-anchor="auto">model3</text><line x1="133.82857142857142" y1="15" x2="133.82857142857142" y2="80" style="stroke:#000; stroke-width: 1"></line><line x1="133.82857142857142" y1="80" x2="40.6" y2="80" style="stroke:#000; stroke-width: 1"></line><text x="2.6000000000000014" y="80" fill="black" font-size="10" font-family="Verdana" dominant-baseline="middle" text-anchor="auto">model4</text><line x1="151.4742857142857" y1="15" x2="151.4742857142857" y2="90" style="stroke:#000; stroke-width: 1"></line><line x1="151.4742857142857" y1="90" x2="40.6" y2="90" style="stroke:#000; stroke-width: 1"></line><text x="2.6000000000000014" y="90" fill="black" font-size="10" font-family="Verdana" dominant-baseline="middle" text-anchor="auto">model5</text><line x1="283.81714285714287" y1="15" x2="283.81714285714287" y2="50" style="stroke:#000; stroke-width: 1"></line><line x1="283.81714285714287" y1="50" x2="359.40000000000003" y2="50" style="stroke:#000; stroke-width: 1"></line><text x="359.4" y="50" fill="black" font-size="10" font-family="Verdana" dominant-baseline="middle" text-anchor="auto">model8</text><line x1="257.34857142857146" y1="15" x2="257.34857142857146" y2="60" style="stroke:#000; stroke-width: 1"></line><line x1="257.34857142857146" y1="60" x2="359.40000000000003" y2="60" style="stroke:#000; stroke-width: 1"></line><text x="359.4" y="60" fill="black" font-size="10" font-family="Verdana" dominant-baseline="middle" text-anchor="auto">model7</text><line x1="200" y1="15" x2="200" y2="70" style="stroke:#000; stroke-width: 1"></line><line x1="200" y1="70" x2="359.40000000000003" y2="70" style="stroke:#000; stroke-width: 1"></line><text x="359.4" y="70" fill="black" font-size="10" font-family="Verdana" dominant-baseline="middle" text-anchor="auto">model6</text></svg>